<?xml version="1.0" encoding="UTF-8"?>
<svg id="a" data-name="Layer_1" xmlns="http://www.w3.org/2000/svg" viewBox="0 0 444 151.97">
  <defs>
    <style>
      .b {
        fill: #fff;
      }

      .c {
        fill: #e4002b;
      }
    </style>
  </defs>
  <path class="c" d="M7.18,75.73c-.15,25.52,20.43,46.32,45.95,46.45,25.52.15,46.31-20.44,46.44-45.96.13-25.51-20.43-46.3-45.95-46.43h-.26c-25.39-.01-46.05,20.51-46.18,45.94Z"/>
  <g>
    <path class="b" d="M139.44,96.8l-10.71-14.73h-5.41v14.73h-7.83v-40.29h16.12c9.15,0,14.79,4.89,14.79,13.01,0,5.93-3.63,10.25-9.32,11.86l11.8,15.43h-9.44ZM123.32,63.47v12.03h7.88c4.37,0,6.96-2.01,6.96-5.99s-2.65-6.04-6.96-6.04h-7.88Z"/>
    <path class="b" d="M181.17,63.47h-20.38v9.32h17.9v6.85h-17.9v10.19h20.38v6.96h-28.26v-40.29h28.26v6.96Z"/>
    <path class="b" d="M213.98,96.8l-3.86-10.42h-15.08l-3.86,10.42h-8.17l15.83-40.29h7.66l15.89,40.29h-8.4ZM197.4,79.93h10.36l-5.18-14.04-5.18,14.04Z"/>
    <path class="b" d="M233.15,84.77l4.95-1.38c1.27,5.75,5.41,9.21,11.74,9.21,5.99,0,9.84-2.36,9.84-6.16,0-3.28-2.53-5.3-9.04-7.02l-5.24-1.38c-6.85-1.84-10.48-5.53-10.48-10.94,0-6.56,5.76-11.17,14.16-11.17s13.87,4.09,15.43,11.8l-4.78,1.21c-1.21-5.76-5.3-8.23-10.53-8.23s-8.86,2.36-8.86,5.99,2.53,5.18,7.42,6.5l5.18,1.38c8.12,2.19,12.03,6.04,12.03,11.4,0,6.85-5.87,11.4-15.14,11.4s-14.91-4.55-16.69-12.6Z"/>
    <path class="b" d="M295.65,83.33h-22.1c.35,6.33,4.09,9.61,8.92,9.61,3.86,0,7.08-1.67,8.92-6.33l4.2,1.73c-2.65,6.62-7.77,9.04-13.18,9.04-8.06,0-13.93-6.1-13.93-15.14s5.87-15.02,13.93-15.02,13.3,5.87,13.3,14.73c0,.52,0,.98-.06,1.38ZM273.72,79.53h16.81c-.75-5.41-3.97-8.06-8.17-8.06-4.61,0-7.83,2.88-8.63,8.06Z"/>
    <path class="b" d="M299.34,82.24c0-8.86,6.1-15.02,14.04-15.02,5.87,0,11.11,2.65,13.53,9.96l-4.43,1.73c-1.73-5.24-4.78-7.25-9.09-7.25-4.84,0-8.98,3.8-8.98,10.59s4.14,10.59,8.98,10.59c4.32,0,7.37-1.96,9.09-7.19l4.43,1.73c-2.42,7.31-7.66,9.96-13.53,9.96-7.94,0-14.04-6.16-14.04-15.08Z"/>
    <path class="b" d="M330.76,85.06v-17.32h4.95v16.92c0,5.47,3.11,8.17,7.42,8.17s7.37-2.7,7.37-8.17v-16.92h4.95v17.32c0,7.89-5.18,12.26-12.32,12.26s-12.37-4.37-12.37-12.26Z"/>
    <path class="b" d="M376.29,67.21v5.24h-2.76c-4.14,0-7.08,3.45-7.08,8.75v15.6h-4.95v-29.07h4.95v5.01c1.67-3.68,4.61-5.53,8.12-5.53h1.73Z"/>
    <path class="b" d="M379.11,58.69c0-1.96,1.5-3.4,3.45-3.4s3.57,1.44,3.57,3.4c0,2.07-1.55,3.45-3.57,3.45s-3.45-1.38-3.45-3.45ZM385.04,67.73v29.07h-4.95v-29.07h4.95Z"/>
    <path class="b" d="M406.11,71.93h-6.85v15.89c0,2.94,1.15,4.6,3.86,4.6h2.99v4.37h-3.45c-5.58,0-8.35-3.57-8.35-8.58v-16.29h-5.41v-4.2h5.41v-6.33l4.95-3.22v9.55h6.85v4.2Z"/>
    <path class="b" d="M430.91,67.73h5.41l-18.71,38.56h-5.41l7.31-15.08-11.8-23.48h5.64l8.81,18.07,8.75-18.07Z"/>
  </g>
  <path class="b" d="M69.53,102.91h-32.31c-2.56,0-4.64-2.08-4.64-4.64v-19h-3.87c-1.88,0-3.55-1.12-4.28-2.85-.72-1.74-.33-3.71.99-5.05l24.66-24.78c.86-.86,2.06-1.36,3.28-1.36s2.42.5,3.28,1.36l24.66,24.78c1.32,1.33,1.72,3.31.99,5.05-.72,1.74-2.4,2.85-4.28,2.85h-3.85v19c0,2.56-2.08,4.64-4.64,4.64ZM53.38,49.26c-.17,0-.32.06-.44.18l-24.66,24.78c-.18.18-.23.44-.13.67.1.23.32.38.57.38h5.88c1.1,0,2.01.9,2.01,2.01v21c0,.34.28.62.62.62h32.31c.34,0,.62-.28.62-.62v-21c0-1.1.9-2.01,2.01-2.01h5.88c.25,0,.47-.15.57-.38.1-.23.04-.49-.13-.67l-24.68-24.78c-.12-.12-.27-.18-.44-.18Z"/>
  <path class="b" d="M63.75,67.72c-1.92-1.04-3.97-1.77-6.26-2.24-1.39-.24-2.78-.36-4.12-.36-1.32,0-2.7.12-4.1.37-2.29.47-4.33,1.2-6.25,2.24-.41.22-.58.5-.57.96.03,2.58.06,5.16.08,7.74l.04,3.97c0,.17.02.36.07.59.33,1.55,1.13,2.98,2.45,4.37,1.89,1.99,4.24,3.28,6.68,4.54.56.29,1.08.43,1.61.43.52,0,1.07-.15,1.62-.43,2.44-1.26,4.79-2.55,6.68-4.54,1.32-1.39,2.12-2.82,2.45-4.37.05-.23.07-.41.07-.59l.04-4.04c.03-2.56.05-5.12.08-7.68,0-.46-.16-.74-.57-.96ZM62.25,69.63c-.01,1.2-.02,2.4-.03,3.6-.01,2.13-.02,4.32-.07,6.49h0c-.01.66-.17,1.37-.44,2.01-.26.6-.66,1.23-1.2,1.86-1.83,2.11-4.16,3.43-7.1,4.76-.01,0-.04.01-.06,0-2.94-1.33-5.28-2.65-7.1-4.76-.54-.63-.94-1.25-1.2-1.86-.27-.64-.43-1.35-.44-2.01-.04-2.16-.05-4.35-.07-6.48,0-1.2-.01-2.41-.03-3.61,0-.33.05-.43.32-.56,2.54-1.19,5.24-1.84,8.02-1.92.14,0,.38,0,.48-.01h.03s.04,0,.04,0c.11,0,.36.01.49.01h0c2.79.08,5.49.72,8.02,1.91.27.13.33.23.32.56Z"/>
  <path class="b" d="M55.05,75.75c.15-.35.2-.74.12-1.11-.07-.38-.26-.72-.54-.98-.18-.18-.4-.31-.63-.4-.24-.09-.48-.13-.74-.12-.47.02-.91.22-1.25.56-.33.33-.53.78-.55,1.25-.01.33.07.66.22.95.16.29.39.53.68.73l-.65,3.5c-.02.13.01.27.1.37.09.1.21.16.35.16h2.33c.13,0,.26-.06.34-.16.09-.1.12-.24.1-.37l-.64-3.52c.33-.2.58-.49.74-.84Z"/>
</svg>