<svg id="Tantosec_Logo_Black" xmlns="http://www.w3.org/2000/svg" xmlns:xlink="http://www.w3.org/1999/xlink" width="165" height="60" viewBox="0 0 165 60">
  <defs>
    <clipPath id="clip-path">
      <rect id="Rectangle_184" data-name="Rectangle 184" width="165" height="60" fill="none"/>
    </clipPath>
  </defs>
  <path id="Path_321" data-name="Path 321" d="M257.933,0,238.06,38.893h9.393L257.975,17.83,268.24,38.893h9.449Z" transform="translate(-216.167 -0.001)"/>
  <path id="Path_322" data-name="Path 322" d="M743.64,0V38.952h9.478V17.83L779.1,38.952,779.135.01h-9.68V20.715Z" transform="translate(-675.251 -0.001)"/>
  <path id="Path_323" data-name="Path 323" d="M0,0V8.669H10.951l.008,30.255,9.476-18.209V8.669l5.79.005L30.713.007Z" transform="translate(0 -0.001)"/>
  <path id="Path_324" data-name="Path 324" d="M1203.148,0V8.669H1214.1l.008,30.165,9.476-18.119V8.669l5.79.005,4.489-8.668Z" transform="translate(-1092.499 -0.001)"/>
  <g id="Group_1086" data-name="Group 1086">
    <g id="Group_1085" data-name="Group 1085" clip-path="url(#clip-path)">
      <path id="Path_325" data-name="Path 325" d="M1488.5,18a19.481,19.481,0,0,0-4.389-11.791A21.111,21.111,0,0,0,1475.893,0l-4,7.925c.176.076.351.154.525.239a11.343,11.343,0,0,1,5.241,15.322,11.716,11.716,0,0,1-15.581,5.154c-.174-.085-.343-.175-.51-.267l-4.015,7.95a21.6,21.6,0,0,0,10.538,2.4,21.276,21.276,0,0,0,14.669-6.306A19.6,19.6,0,0,0,1488.5,18" transform="translate(-1323.505)"/>
      <rect id="Rectangle_182" data-name="Rectangle 182" width="1.702" height="7.103" transform="translate(147.996 50.234)" fill="red"/>
      <rect id="Rectangle_183" data-name="Rectangle 183" width="1.682" height="1.654" transform="translate(148.018 47.585)" fill="red"/>
      <path id="Path_326" data-name="Path 326" d="M5.18,556.591a1.261,1.261,0,0,0-1.331-.888c-.71,0-1.251.333-1.246.814,0,.411.287.661,1.021.823l1.232.259c1.364.291,2.027.911,2.031,1.924,0,1.346-1.279,2.266-3.085,2.266-1.773,0-2.887-.772-3.1-2.076l1.66-.157a1.292,1.292,0,0,0,1.434.971c.809,0,1.345-.365,1.345-.851,0-.4-.31-.666-.973-.809l-1.232-.254c-1.387-.282-2.036-.966-2.031-2,0-1.313,1.18-2.155,2.92-2.155,1.693,0,2.671.767,2.906,1.97Z" transform="translate(-0.638 -504.314)" fill="red"/>
      <path id="Path_327" data-name="Path 327" d="M95.592,538.768h-1.7V529.3h1.665v3.574h.085a2.124,2.124,0,0,1,2.149-1.3,2.383,2.383,0,0,1,2.488,2.673v4.522h-1.7V534.5a1.346,1.346,0,0,0-1.42-1.517,1.487,1.487,0,0,0-1.561,1.618Z" transform="translate(-85.255 -481.432)" fill="red"/>
      <path id="Path_328" data-name="Path 328" d="M286.2,554.455h1.651v1.184h.075a1.8,1.8,0,0,1,1.782-1.286,4.145,4.145,0,0,1,.611.046v1.54a3.3,3.3,0,0,0-.79-.1,1.532,1.532,0,0,0-1.627,1.54v4.176h-1.7Z" transform="translate(-259.876 -504.221)" fill="red"/>
      <path id="Path_329" data-name="Path 329" d="M353.968,554.547h1.674v1.174h.1a2.143,2.143,0,0,1,2.064-1.267c1.669,0,2.981,1.285,2.981,3.653,0,2.34-1.274,3.667-2.977,3.667a2.179,2.179,0,0,1-2.069-1.244h-.071v3.782h-1.7Zm3.367,5.854c1.124,0,1.716-.971,1.716-2.3s-.583-2.27-1.716-2.27c-1.1,0-1.7.892-1.7,2.27s.611,2.3,1.7,2.3" transform="translate(-321.415 -504.314)" fill="red"/>
      <path id="Path_330" data-name="Path 330" d="M451.194,558.14a3.363,3.363,0,0,1,3.419-3.685c1.778,0,3.3,1.1,3.3,3.588v.513h-5.032a1.763,1.763,0,0,0,1.843,1.928,1.509,1.509,0,0,0,1.528-.916l1.589.176a2.933,2.933,0,0,1-3.141,2.044,3.325,3.325,0,0,1-3.508-3.648m5.088-.712a1.6,1.6,0,0,0-1.646-1.669,1.722,1.722,0,0,0-1.749,1.669Z" transform="translate(-409.7 -504.314)" fill="red"/>
      <path id="Path_331" data-name="Path 331" d="M550.566,554.455h1.651v1.184h.075a1.8,1.8,0,0,1,1.782-1.286,4.145,4.145,0,0,1,.611.046v1.54a3.305,3.305,0,0,0-.79-.1,1.532,1.532,0,0,0-1.627,1.54v4.176h-1.7Z" transform="translate(-499.933 -504.221)" fill="red"/>
      <path id="Path_332" data-name="Path 332" d="M661.362,558.126a3.363,3.363,0,0,1,3.452-3.671,2.823,2.823,0,0,1,3.1,2.552H666.29a1.408,1.408,0,0,0-1.453-1.2c-1.049,0-1.749.86-1.749,2.294,0,1.452.687,2.326,1.749,2.326a1.4,1.4,0,0,0,1.453-1.2h1.627a2.817,2.817,0,0,1-3.094,2.567,3.35,3.35,0,0,1-3.461-3.662" transform="translate(-600.539 -504.314)" fill="red"/>
      <path id="Path_333" data-name="Path 333" d="M852.952,529.3h1.7v3.542h.071a2.143,2.143,0,0,1,2.064-1.267c1.669,0,2.981,1.285,2.981,3.653,0,2.34-1.274,3.667-2.977,3.667a2.179,2.179,0,0,1-2.069-1.244h-.1v1.119h-1.674Zm3.367,8.222c1.124,0,1.716-.971,1.716-2.3s-.583-2.27-1.716-2.27c-1.1,0-1.7.892-1.7,2.27s.611,2.3,1.7,2.3" transform="translate(-774.51 -481.432)" fill="red"/>
      <path id="Path_334" data-name="Path 334" d="M950.178,558.14a3.363,3.363,0,0,1,3.419-3.685c1.777,0,3.3,1.1,3.3,3.588v.513h-5.032a1.763,1.763,0,0,0,1.843,1.928,1.509,1.509,0,0,0,1.528-.916l1.589.176a2.933,2.933,0,0,1-3.141,2.044,3.325,3.325,0,0,1-3.508-3.648m5.088-.712a1.6,1.6,0,0,0-1.646-1.669,1.722,1.722,0,0,0-1.749,1.669Z" transform="translate(-862.794 -504.314)" fill="red"/>
      <path id="Path_335" data-name="Path 335" d="M1049.55,554.455h1.651v1.184h.075a1.8,1.8,0,0,1,1.782-1.286,4.143,4.143,0,0,1,.611.046v1.54a3.3,3.3,0,0,0-.79-.1,1.532,1.532,0,0,0-1.627,1.54v4.176h-1.7Z" transform="translate(-953.027 -504.221)" fill="red"/>
      <path id="Path_336" data-name="Path 336" d="M1164.719,556.591a1.261,1.261,0,0,0-1.331-.888c-.71,0-1.251.333-1.246.814,0,.411.287.661,1.021.823l1.232.259c1.364.291,2.027.911,2.031,1.924,0,1.346-1.279,2.266-3.085,2.266-1.773,0-2.887-.772-3.1-2.076l1.66-.157a1.292,1.292,0,0,0,1.434.971c.809,0,1.345-.365,1.345-.851,0-.4-.31-.666-.974-.809l-1.232-.254c-1.387-.282-2.036-.966-2.031-2,0-1.313,1.18-2.155,2.92-2.155,1.693,0,2.671.767,2.906,1.97Z" transform="translate(-1053.539 -504.314)" fill="red"/>
      <path id="Path_337" data-name="Path 337" d="M1250.055,558.14a3.363,3.363,0,0,1,3.418-3.685c1.778,0,3.3,1.1,3.3,3.588v.513h-5.032a1.763,1.763,0,0,0,1.843,1.928,1.509,1.509,0,0,0,1.528-.916l1.59.176a2.934,2.934,0,0,1-3.141,2.044,3.326,3.326,0,0,1-3.508-3.648m5.088-.712a1.6,1.6,0,0,0-1.646-1.669,1.722,1.722,0,0,0-1.749,1.669Z" transform="translate(-1135.093 -504.314)" fill="red"/>
      <path id="Path_338" data-name="Path 338" d="M1346.052,558.126a3.363,3.363,0,0,1,3.451-3.671,2.823,2.823,0,0,1,3.1,2.552h-1.627a1.408,1.408,0,0,0-1.453-1.2c-1.049,0-1.749.86-1.749,2.294,0,1.452.686,2.326,1.749,2.326a1.4,1.4,0,0,0,1.453-1.2h1.627a2.817,2.817,0,0,1-3.094,2.567,3.35,3.35,0,0,1-3.461-3.662" transform="translate(-1222.261 -504.314)" fill="red"/>
      <path id="Path_339" data-name="Path 339" d="M1447.832,555.478h1.7v7.1h-1.651v-1.262h-.075a2.231,2.231,0,0,1-2.172,1.355,2.37,2.37,0,0,1-2.408-2.673v-4.522h1.7v4.263a1.331,1.331,0,0,0,1.363,1.47,1.522,1.522,0,0,0,1.538-1.618Z" transform="translate(-1310.5 -505.244)" fill="red"/>
      <path id="Path_340" data-name="Path 340" d="M1541.476,554.455h1.651v1.184h.075a1.8,1.8,0,0,1,1.782-1.286,4.146,4.146,0,0,1,.611.046v1.54a3.3,3.3,0,0,0-.79-.1,1.532,1.532,0,0,0-1.627,1.54v4.176h-1.7Z" transform="translate(-1399.713 -504.221)" fill="red"/>
      <path id="Path_341" data-name="Path 341" d="M1655.656,539.658h-1.425v3.671c0,.675.343.823.771.823a2.156,2.156,0,0,0,.5-.065l.287,1.309a3.477,3.477,0,0,1-1,.167c-1.279.037-2.266-.62-2.257-1.956v-3.949H1651.5v-1.295h1.025v-1.7h1.7v1.7h1.425Z" transform="translate(-1499.622 -488.129)" fill="red"/>
      <path id="Path_342" data-name="Path 342" d="M1717.089,565.068l.395-1.3c.743.213,1.242.157,1.557-.652l.146-.384-2.619-7.251h1.806l1.665,5.364h.075l1.669-5.364h1.811l-2.892,7.963a2.451,2.451,0,0,1-2.5,1.8,3.237,3.237,0,0,1-1.11-.176" transform="translate(-1558.702 -505.244)" fill="red"/>
      <path id="Path_343" data-name="Path 343" d="M752.72,565.068l.395-1.3c.743.213,1.241.157,1.557-.652l.146-.384-2.619-7.251H754l1.665,5.364h.075l1.669-5.364h1.81l-2.892,7.963a2.451,2.451,0,0,1-2.5,1.8,3.238,3.238,0,0,1-1.11-.176" transform="translate(-683.022 -505.244)" fill="red"/>
      <path id="Path_344" data-name="Path 344" d="M189.069,555.4l-2.588,7.127h1.81l1.669-5.364h.075l1.665,5.364h1.806l-2.575-7.127Z" transform="translate(-169.331 -505.17)" fill="red"/>
    </g>
  </g>
</svg>
